<?xml version="1.0" encoding="UTF-8"?>
<svg id="Layer_3" data-name="Layer 3" xmlns="http://www.w3.org/2000/svg" viewBox="0 0 2317.72 828">
  <defs>
    <style>
      .cls-1 {
        fill: #58595b;
      }

      .cls-2 {
        fill: #fff;
        opacity: 0;
      }
    </style>
  </defs>
  <g id="Layer_1" data-name="Layer 1">
    <g>
      <rect class="cls-2" width="2317.72" height="828"/>
      <g>
        <g>
          <polygon points="497.77 388.75 464.36 388.75 464.36 460.35 497.77 460.35 497.77 493.86 586.11 493.86 586.11 460.35 497.87 460.35 497.87 388.75 586.11 388.75 586.11 355.24 497.77 355.24 497.77 388.75"/>
          <path d="M746.25,388.74h-20.42v-33.5h-88.35v33.51h-33.4v71.6h33.4v33.51h88.35v-33.41h20.42v-71.71ZM637.59,388.75h88.1v71.6h-88.1v-71.6Z"/>
          <rect x="974.92" y="355.24" width="96.59" height="33.51"/>
          <polygon points="974.92 435.35 1054.04 435.35 1054.04 413.75 974.92 413.75 974.92 388.75 941.41 388.75 941.41 460.35 974.92 460.35 974.92 493.86 1071.52 493.86 1071.52 460.35 974.92 460.35 974.92 435.35"/>
          <polygon points="1274.62 388.75 1241.22 388.75 1241.22 493.81 1274.73 493.81 1274.73 435.35 1353.21 435.35 1353.21 413.75 1274.73 413.75 1274.73 388.75 1365.91 388.75 1365.91 355.24 1274.62 355.24 1274.62 388.75"/>
          <polygon points="1426.99 355.28 1393.48 355.28 1393.48 460.35 1426.99 460.35 1426.99 493.81 1500.44 493.81 1500.44 460.3 1426.99 460.3 1426.99 355.28"/>
          <polygon points="1868.58 355.28 1835.07 355.28 1835.07 460.3 1791.75 460.3 1791.75 388.74 1758.24 388.74 1758.24 460.3 1714.88 460.3 1714.88 355.28 1681.37 355.28 1681.37 460.35 1714.88 460.35 1714.88 493.81 1758.3 493.81 1758.3 460.35 1791.68 460.35 1791.68 493.81 1835.11 493.81 1835.11 460.35 1868.58 460.35 1868.58 355.28"/>
          <polygon points="893.83 460.35 806.87 460.35 806.87 388.75 893.97 388.75 893.97 355.24 773.35 355.24 773.35 385.31 773.35 388.75 773.35 460.35 806.7 460.35 806.7 493.86 894.06 493.86 894.06 460.35 914.4 460.35 914.4 388.75 893.83 388.75 893.83 460.35"/>
          <polygon points="1122.86 388.75 1089.46 388.75 1089.46 460.35 1122.86 460.35 1122.86 493.86 1211.21 493.86 1211.21 460.35 1122.97 460.35 1122.97 388.75 1211.21 388.75 1211.21 355.24 1122.86 355.24 1122.86 388.75"/>
          <polygon points="1635.12 355.24 1546.78 355.24 1546.78 388.75 1513.37 388.75 1513.37 460.35 1546.78 460.35 1546.78 493.86 1635.12 493.86 1635.12 460.35 1546.88 460.35 1546.88 388.75 1634.98 388.75 1634.98 460.35 1655.54 460.35 1655.54 388.74 1635.12 388.74 1635.12 355.24"/>
        </g>
        <rect class="cls-1" x="435.03" y="418.03" width="71.59" height="12.92" transform="translate(895.31 -46.33) rotate(90)"/>
        <rect class="cls-1" x="487.49" y="365.52" width="33.51" height="12.92" transform="translate(876.22 -132.27) rotate(90)"/>
        <rect class="cls-1" x="487.49" y="470.65" width="33.51" height="12.92" transform="translate(981.35 -27.14) rotate(90)"/>
        <rect class="cls-1" x="1060.09" y="418.03" width="71.59" height="12.92" transform="translate(1520.38 -671.4) rotate(90)"/>
        <rect class="cls-1" x="1195.12" y="434.79" width="105.11" height="12.92" transform="translate(1688.93 -806.43) rotate(90)"/>
        <rect class="cls-1" x="1112.56" y="365.52" width="33.51" height="12.92" transform="translate(1501.29 -757.34) rotate(90)"/>
        <rect class="cls-1" x="1264.32" y="365.52" width="33.51" height="12.92" transform="translate(1653.05 -909.09) rotate(90)"/>
        <rect class="cls-1" x="1112.56" y="470.65" width="33.51" height="12.92" transform="translate(1606.42 -652.2) rotate(90)"/>
        <rect class="cls-1" x="1416.69" y="470.65" width="33.51" height="12.92" transform="translate(1910.55 -956.33) rotate(90)"/>
        <rect class="cls-1" x="574.74" y="418.03" width="71.59" height="12.92" transform="translate(1035.02 -186.04) rotate(90)"/>
        <rect class="cls-1" x="627.2" y="365.52" width="33.51" height="12.92" transform="translate(1015.93 -271.98) rotate(90)"/>
        <rect class="cls-1" x="627.2" y="470.65" width="33.51" height="12.92" transform="translate(1121.06 -166.85) rotate(90)"/>
        <rect class="cls-1" x="1484.03" y="418.03" width="71.59" height="12.92" transform="translate(1944.31 -1095.33) rotate(90)"/>
        <rect class="cls-1" x="1728.89" y="418.03" width="71.59" height="12.92" transform="translate(2189.17 -1340.19) rotate(90)"/>
        <rect class="cls-1" x="1536.49" y="365.52" width="33.51" height="12.92" transform="translate(1925.22 -1181.27) rotate(90)"/>
        <rect class="cls-1" x="1536.49" y="470.65" width="33.51" height="12.92" transform="translate(2030.35 -1076.14) rotate(90)"/>
        <rect class="cls-1" x="912.17" y="418.03" width="71.59" height="12.92" transform="translate(1372.46 -523.48) rotate(90)"/>
        <rect class="cls-1" x="964.64" y="365.52" width="33.51" height="12.92" transform="translate(1353.37 -609.41) rotate(90)"/>
        <rect class="cls-1" x="964.64" y="470.65" width="33.51" height="12.92" transform="translate(1458.5 -504.28) rotate(90)"/>
        <rect class="cls-1" x="796.41" y="470.65" width="33.51" height="12.92" transform="translate(1290.28 -336.06) rotate(90)"/>
        <rect class="cls-1" x="727.29" y="401.3" width="105.04" height="12.92" transform="translate(1187.58 -372.05) rotate(90)"/>
        <rect class="cls-1" x="1347.41" y="401.37" width="105.04" height="12.92" transform="translate(1807.76 -992.11) rotate(90)"/>
        <rect class="cls-1" x="1704.58" y="470.65" width="33.51" height="12.92" transform="translate(2198.44 -1244.22) rotate(90)"/>
        <rect class="cls-1" x="1635.31" y="401.37" width="105.04" height="12.92" transform="translate(2095.65 -1280) rotate(90)"/>
        <rect class="cls-1" x="1781.36" y="470.65" width="33.51" height="12.92" transform="translate(2275.22 -1321.01) rotate(90)"/>
        <rect class="cls-1" x="1788.97" y="401.37" width="105.04" height="12.92" transform="translate(2249.32 -1433.67) rotate(90)"/>
      </g>
    </g>
  </g>
</svg>